{"glyphs":{"A":{"ha":697,"x_min":67,"x_max":749,"o":"m 96 -46 q 69 -15 71 -32 q 88 43 67 1 q 153 172 108 85 q 203 270 186 235 q 227 321 221 306 q 233 340 233 336 q 236 360 231 353 q 254 374 242 368 q 277 399 261 381 q 307 442 293 417 q 336 501 319 471 q 381 578 353 532 q 453 700 408 625 q 514 799 481 749 q 585 900 547 850 q 613 931 600 919 q 638 942 625 943 q 676 931 654 942 q 715 901 697 919 q 742 863 733 883 q 747 815 749 851 q 742 728 746 779 q 732 618 738 676 q 719 483 728 561 q 703 321 711 406 q 692 158 696 236 q 692 21 688 79 q 692 -3 693 8 q 690 -21 690 -14 q 663 -28 682 -29 q 627 -19 644 -28 q 607 1 610 -11 q 602 13 603 6 q 603 46 601 21 q 606 125 604 71 l 613 350 l 594 349 q 547 346 582 349 q 472 338 513 343 q 398 328 432 333 q 351 319 364 324 q 322 303 339 319 q 289 260 304 286 q 269 219 283 240 q 254 190 254 197 q 238 174 244 183 q 232 164 232 164 q 219 123 232 156 q 186 51 206 90 q 147 -18 167 11 l 118 -62 l 96 -46 m 383 401 q 398 404 383 401 q 433 410 413 407 q 469 414 453 414 q 554 433 528 428 q 591 438 581 438 q 610 433 601 438 q 620 425 615 426 q 625 424 625 424 q 629 456 626 426 q 637 528 632 485 q 647 617 642 571 q 654 703 651 664 q 658 764 657 743 q 661 812 660 790 q 663 833 663 833 q 627 803 654 833 q 567 722 600 772 q 504 615 533 672 q 478 568 490 589 q 458 547 465 547 q 442 523 456 544 q 414 474 429 501 q 389 426 399 447 q 383 401 379 404 z "},"B":{"ha":722,"x_min":113,"x_max":796,"o":"m 285 -79 q 204 -12 225 -40 q 221 40 183 17 q 248 31 229 46 q 279 4 267 17 q 348 -27 307 -21 q 440 -19 389 -33 q 542 31 499 -1 q 625 111 586 64 q 665 192 654 149 q 674 274 676 236 q 658 326 672 311 q 562 394 624 375 q 417 390 500 413 q 388 385 407 389 q 353 377 368 381 q 336 374 338 374 q 321 367 326 371 q 308 347 315 364 q 285 285 300 329 q 239 157 269 242 q 192 37 210 72 q 162 5 175 1 q 129 35 149 8 q 115 73 118 54 q 126 117 113 92 q 138 140 133 129 q 149 176 142 150 q 176 249 156 197 q 224 372 196 301 q 282 517 251 442 q 341 658 313 592 q 389 771 369 725 q 413 833 408 814 q 410 854 417 853 q 406 867 410 861 q 403 879 401 874 q 422 894 403 885 q 463 913 440 904 q 499 918 486 921 q 515 919 506 918 q 525 925 525 919 q 551 928 529 925 q 600 928 574 931 q 744 874 693 919 q 794 751 796 829 q 770 688 793 728 q 715 607 747 647 q 651 539 682 567 q 613 508 633 524 q 578 481 593 492 q 564 471 564 471 q 575 467 564 471 q 599 458 586 463 q 704 399 663 435 q 761 299 746 363 q 762 247 767 278 q 749 187 757 217 q 731 136 740 157 q 715 116 721 126 q 710 106 710 106 q 699 84 710 103 q 672 43 688 65 q 643 4 657 21 q 610 -22 629 -7 q 569 -51 592 -37 q 519 -75 546 -65 q 435 -98 481 -92 q 350 -99 390 -104 q 285 -79 310 -94 m 353 456 q 378 460 353 456 q 435 472 404 465 q 479 483 465 478 q 499 494 486 488 q 526 515 513 501 q 576 567 546 533 q 635 640 606 601 q 679 708 664 678 q 714 783 711 758 q 699 825 717 807 q 656 845 686 840 q 593 848 626 850 q 536 839 560 846 q 508 826 518 833 q 499 803 499 818 q 491 778 499 790 q 476 760 483 767 q 469 742 475 750 q 464 735 464 735 q 444 689 464 729 q 406 596 425 649 q 367 499 381 536 q 353 456 353 463 z "},"C":{"ha":656,"x_min":158,"x_max":776,"o":"m 297 -78 q 255 -60 276 -69 q 215 -31 233 -50 q 182 21 196 -12 q 163 100 168 61 q 160 190 158 139 q 170 316 160 263 q 203 425 181 369 q 213 449 206 429 q 231 493 221 469 q 247 529 242 517 q 281 592 258 553 q 331 669 304 632 q 397 764 371 729 q 447 822 424 799 q 501 867 471 846 q 578 921 531 889 q 645 944 608 943 q 714 928 682 946 q 761 878 746 911 q 776 808 776 849 q 764 722 776 767 q 729 636 751 676 q 678 569 707 596 q 645 557 660 553 q 611 579 631 561 q 598 607 599 603 q 603 613 597 611 q 625 646 611 622 q 653 697 639 669 q 672 740 667 724 q 688 823 683 799 q 679 860 692 847 q 663 864 674 865 q 629 850 653 863 q 546 788 597 836 q 451 682 494 740 q 358 551 396 608 q 301 435 321 494 q 292 414 299 429 q 286 399 286 399 q 282 372 288 393 q 269 335 276 350 q 251 202 254 271 q 259 81 249 133 q 290 7 269 28 q 340 -1 308 -6 q 411 18 371 3 q 493 51 451 33 q 554 82 526 65 q 596 111 582 99 q 624 128 607 119 q 654 138 642 138 q 676 143 674 144 q 679 131 679 142 q 658 88 679 111 q 603 44 636 64 q 574 21 592 33 q 536 1 556 8 q 464 -42 507 -21 q 377 -74 421 -62 q 297 -78 333 -85 z "},"I":{"ha":556,"x_min":64,"x_max":839,"o":"m 267 -43 q 223 -24 257 -28 q 140 -22 189 -19 q 103 -20 121 -25 q 74 -5 85 -15 q 67 17 64 6 q 95 43 68 33 q 182 54 122 53 l 256 56 l 269 83 q 283 126 275 99 q 301 186 292 154 q 318 239 307 206 q 342 310 329 272 q 364 377 354 347 q 376 419 374 407 q 392 462 382 432 q 410 523 401 492 q 422 568 419 554 q 469 724 458 678 q 475 772 481 771 q 448 771 469 772 q 401 767 426 769 q 355 763 375 765 q 331 757 335 760 q 307 753 324 747 q 286 772 290 758 q 285 792 285 785 q 293 803 286 799 q 331 822 303 811 q 394 840 358 832 q 461 853 429 849 q 508 863 485 856 q 546 882 532 871 q 570 889 558 886 q 594 890 582 892 q 633 883 606 883 q 690 885 660 883 q 795 889 768 892 q 832 867 822 886 q 835 826 839 840 q 807 813 831 811 q 762 808 794 810 q 693 804 729 806 q 588 785 594 796 q 578 774 582 779 q 569 761 575 768 q 563 726 571 756 q 544 665 556 696 q 528 614 539 647 q 505 545 517 581 q 483 481 493 510 q 469 443 474 453 q 460 416 464 431 q 456 394 457 401 q 422 279 436 326 q 395 197 407 232 q 374 128 383 161 q 353 57 364 96 q 374 59 353 57 q 432 64 396 61 q 526 72 497 71 q 564 69 554 74 q 578 51 574 64 q 585 0 606 14 q 486 -12 564 -14 q 376 -17 414 -15 q 323 -24 338 -19 q 306 -37 308 -28 q 294 -49 306 -49 q 267 -43 283 -49 z "},"N":{"ha":832,"x_min":113,"x_max":1022,"o":"m 135 -86 q 117 -60 121 -71 q 116 -35 113 -50 q 126 6 119 -21 q 151 80 138 50 q 177 142 164 110 q 200 226 190 175 q 240 324 222 278 q 267 399 257 369 q 276 428 276 428 q 289 457 278 433 q 317 515 300 481 q 350 583 335 549 q 388 698 374 650 q 418 785 403 746 q 458 861 433 824 q 497 899 475 890 q 540 898 519 907 q 568 861 560 889 q 580 828 575 847 q 589 772 585 808 q 594 668 593 735 q 596 512 597 589 q 597 369 594 435 q 611 258 599 304 q 623 198 615 233 q 640 128 631 163 q 658 69 649 93 q 672 46 667 46 q 691 64 679 46 q 722 129 703 82 q 767 263 740 176 q 826 486 793 350 q 845 563 833 510 q 863 669 857 615 q 882 746 872 704 q 899 819 892 788 q 907 856 907 851 q 908 872 907 865 q 907 886 908 879 q 919 905 914 886 q 925 938 925 924 q 931 976 925 961 q 944 997 938 990 q 965 1008 949 1008 q 999 999 982 1007 q 1019 976 1015 990 q 1012 908 1022 961 q 981 764 1001 854 q 972 714 981 749 q 955 640 964 679 q 942 574 946 601 q 929 506 936 538 q 915 476 922 475 q 840 209 879 319 q 769 29 800 99 q 697 -63 736 -47 q 613 -22 657 -79 q 571 49 586 14 q 546 133 556 85 q 522 251 536 181 q 499 367 501 308 q 503 487 497 425 q 511 615 508 549 q 506 704 510 682 q 490 702 501 726 q 451 604 478 678 q 426 540 442 578 q 394 466 410 503 q 368 402 379 429 q 354 368 357 375 q 335 324 346 351 q 317 267 324 297 q 242 58 267 136 q 207 -50 218 -19 q 178 -102 193 -89 q 135 -86 163 -115 z "},"O":{"ha":689,"x_min":158,"x_max":818,"o":"m 243 -28 q 178 33 192 11 q 161 85 164 54 q 162 153 158 110 q 171 238 165 196 q 181 300 176 279 q 187 319 188 307 q 186 331 186 331 q 196 367 185 338 q 217 444 207 397 q 270 584 244 528 q 321 681 296 640 q 371 754 346 721 q 463 842 428 813 q 540 892 497 872 q 592 918 568 908 q 631 921 615 928 q 747 858 708 904 q 804 714 786 811 q 816 603 814 653 q 808 506 818 554 q 773 401 799 458 q 701 268 747 344 q 592 101 653 172 q 469 -10 532 31 q 347 -57 406 -51 q 243 -28 288 -62 m 332 13 q 393 32 364 17 q 454 77 422 47 q 526 153 486 107 q 585 223 563 194 q 624 281 608 251 q 655 351 640 310 q 689 460 669 393 q 706 529 700 501 q 713 581 711 557 q 713 638 714 606 q 713 719 713 669 q 703 769 711 743 q 683 807 694 794 q 644 828 669 822 q 589 821 619 835 q 546 790 572 814 q 490 733 519 765 q 435 668 461 701 q 394 609 410 635 q 378 574 378 583 q 377 567 378 574 q 371 553 376 560 q 331 483 353 533 q 290 370 310 433 q 258 245 271 307 q 242 138 244 183 q 239 86 239 100 q 244 65 239 72 q 263 36 250 57 q 291 15 271 22 q 332 13 311 8 z "},"R":{"ha":746,"x_min":110,"x_max":889,"o":"m 194 -83 q 174 -99 189 -97 q 136 -82 160 -100 q 115 -56 119 -65 q 119 -26 110 -47 q 153 50 129 -4 q 172 117 158 83 q 193 165 186 151 q 216 230 199 185 q 256 331 233 275 q 300 435 279 386 q 331 510 321 485 q 379 626 354 565 q 447 781 404 688 q 453 810 453 794 q 431 825 454 825 q 415 856 417 840 q 429 879 414 872 l 501 908 q 635 917 567 924 q 765 879 704 911 q 860 801 832 840 q 888 721 888 761 q 874 642 889 681 q 831 578 863 613 q 759 508 800 543 q 674 445 718 474 q 593 401 631 417 q 521 372 558 385 q 443 347 483 360 q 390 342 421 342 q 344 347 360 342 l 321 282 q 273 133 307 232 q 194 -83 239 35 m 746 -99 q 720 -101 735 -103 q 674 -79 706 -100 q 551 8 613 -43 q 414 147 490 60 q 365 211 385 182 q 322 293 344 240 l 303 368 l 340 389 l 390 339 q 448 246 413 290 q 514 167 483 201 q 582 97 539 138 q 674 18 625 56 q 761 -39 722 -19 q 767 -60 769 -46 q 758 -85 764 -74 q 746 -99 751 -97 m 388 418 q 463 434 419 421 q 549 465 506 447 q 634 512 589 485 q 718 572 679 539 q 781 642 757 606 q 803 714 806 678 q 789 751 803 732 q 756 786 775 771 q 718 807 736 801 q 626 825 663 821 q 571 820 590 829 q 544 783 551 811 q 533 756 544 779 q 506 697 522 732 q 475 624 490 663 q 414 499 435 542 q 388 440 393 457 q 388 418 382 424 z "},"T":{"ha":636,"x_min":233,"x_max":896,"o":"m 299 -61 q 274 -43 288 -61 q 261 -8 260 -25 q 274 56 263 14 q 299 140 285 97 q 324 208 313 183 q 334 248 329 231 q 340 271 339 265 q 353 300 344 276 q 368 346 363 324 q 380 388 371 357 q 402 461 389 419 q 428 543 415 503 q 451 614 442 583 q 464 654 461 644 q 481 686 475 671 q 488 707 486 701 q 497 722 496 713 q 499 736 499 731 q 503 747 499 743 q 508 757 508 751 q 515 770 514 761 q 524 786 517 779 l 531 810 l 613 811 q 604 770 610 794 q 578 706 599 746 q 562 656 571 678 q 554 626 553 633 q 542 599 551 624 q 522 538 533 574 q 498 465 510 501 q 477 402 486 429 q 465 368 468 375 q 440 303 454 346 q 399 186 426 260 q 372 119 388 164 q 346 39 356 75 q 324 -37 331 -15 q 314 -60 318 -58 q 299 -61 310 -62 m 310 767 q 252 771 271 765 q 239 799 233 776 q 257 824 243 815 q 297 836 271 832 q 337 843 313 839 q 383 851 361 847 q 459 861 429 857 q 521 868 489 865 q 601 874 553 871 q 670 878 642 876 q 699 881 699 881 q 728 878 703 881 q 782 871 753 875 q 825 861 811 867 q 872 842 857 854 q 892 806 886 829 q 892 785 896 789 q 876 776 888 782 q 829 767 844 767 q 794 774 814 767 q 778 786 788 781 q 748 795 769 792 q 681 801 726 799 q 613 797 642 797 q 583 790 583 797 l 501 786 l 433 779 q 394 776 419 778 q 346 772 369 774 q 310 767 322 769 z "},"U":{"ha":669,"x_min":169,"x_max":903,"o":"m 306 -72 q 208 2 242 -49 q 172 145 174 53 q 200 382 169 238 q 228 493 210 431 q 270 622 246 556 q 322 749 294 688 q 375 858 349 811 q 424 930 407 915 q 456 942 442 944 q 494 916 482 935 q 502 876 506 897 q 475 839 499 854 q 435 773 460 821 q 386 681 411 725 q 338 538 358 600 q 303 422 317 476 q 278 308 289 368 q 259 213 265 250 q 251 151 253 175 q 249 108 249 126 q 249 71 249 90 q 267 39 260 53 q 285 22 274 25 q 338 17 308 11 q 397 39 368 22 q 415 58 404 53 q 426 64 426 64 q 433 60 429 57 q 438 69 436 64 q 440 80 436 75 q 450 90 444 85 q 483 119 461 94 q 527 174 504 143 q 566 229 550 204 q 582 260 582 254 q 588 272 582 267 q 600 286 593 278 q 628 331 607 293 q 676 421 650 369 q 722 515 701 472 q 738 565 726 531 q 762 643 749 599 q 788 733 775 688 q 810 813 800 778 q 824 865 821 849 q 832 895 826 883 q 839 913 838 907 q 856 911 846 915 q 876 901 865 907 q 894 892 886 896 q 901 864 903 881 q 892 813 900 847 q 871 715 885 779 q 801 506 842 601 q 713 303 760 410 q 713 302 713 303 q 713 294 713 301 q 686 265 696 285 q 674 244 679 253 q 663 231 669 235 q 654 208 658 218 q 650 199 650 199 q 640 186 649 192 q 624 175 632 181 q 615 164 617 172 q 610 150 614 156 q 540 60 579 104 q 460 -17 501 15 q 382 -64 419 -50 q 341 -75 357 -74 q 306 -72 325 -76 z "},"Z":{"ha":725,"x_min":85,"x_max":911,"o":"m 169 -50 q 117 -42 140 -47 q 88 -10 93 -37 q 92 30 85 10 q 114 64 100 50 q 166 119 138 89 q 234 189 194 150 q 330 281 274 228 q 467 406 386 335 q 556 484 522 453 q 615 542 589 515 q 674 601 642 568 q 759 699 722 651 q 803 774 796 746 q 799 813 811 801 q 758 830 788 825 q 679 838 728 835 q 527 837 593 844 q 400 818 461 829 q 377 823 390 815 q 364 836 364 831 q 369 850 369 843 q 358 865 369 857 q 358 888 353 879 q 369 901 364 896 q 406 909 381 907 q 463 917 431 911 q 524 922 483 921 q 608 924 565 924 q 675 921 650 924 q 771 912 725 917 q 850 894 817 907 q 896 851 883 882 q 902 794 911 819 q 878 728 893 769 q 822 647 861 697 q 731 541 782 596 q 628 438 681 486 q 488 309 550 365 q 365 200 426 253 q 288 131 326 167 q 210 60 249 96 q 205 33 196 42 q 271 26 214 24 q 321 32 303 28 q 360 40 339 36 q 418 46 381 44 q 554 54 490 50 q 657 58 618 58 q 676 56 668 58 q 697 33 683 53 q 713 22 710 29 q 713 6 717 14 q 696 -12 708 -3 q 662 -17 686 -12 q 609 -26 638 -22 q 558 -28 581 -29 q 490 -30 540 -26 q 381 -40 439 -33 q 268 -50 329 -49 q 169 -50 207 -51 z "},"a":{"ha":607,"x_min":113,"x_max":690,"o":"m 149 50 q 135 67 143 61 q 126 79 126 74 q 126 91 126 85 q 119 103 125 97 q 121 141 113 111 q 149 215 129 171 q 194 307 168 258 q 217 336 206 318 q 233 360 228 354 q 238 370 233 365 q 247 375 242 375 l 247 383 q 260 407 247 390 q 293 444 274 424 q 333 483 313 464 q 368 510 354 501 q 428 533 397 529 q 482 519 460 538 q 496 506 486 515 q 519 484 506 496 q 546 460 532 472 l 597 414 l 572 344 q 563 247 554 289 q 590 175 572 206 q 619 146 597 160 q 660 129 640 132 q 681 121 671 128 q 690 99 690 114 q 685 76 690 85 q 665 65 679 68 q 580 88 619 60 q 507 179 540 115 q 492 210 501 188 q 482 240 483 233 q 461 215 476 233 q 438 188 446 196 q 267 53 339 88 q 149 50 196 19 m 199 128 q 228 128 199 118 q 293 167 258 139 q 388 256 340 207 q 465 346 436 304 l 496 396 q 466 440 482 428 q 439 451 450 451 q 385 418 421 451 q 310 329 350 385 q 233 207 269 274 q 209 153 219 179 q 199 128 199 128 z "},"b":{"ha":604,"x_min":167,"x_max":668,"o":"m 293 24 q 259 31 265 26 q 244 53 253 35 q 231 72 233 65 q 231 85 229 79 q 243 85 238 85 q 250 90 249 86 q 255 96 250 94 q 265 96 260 97 q 333 113 292 94 q 422 166 374 132 q 515 242 469 200 q 568 316 551 289 q 588 360 585 343 q 583 390 590 378 q 543 399 578 401 q 465 369 508 397 q 369 300 406 332 q 303 228 333 268 q 281 194 292 214 q 264 161 271 175 q 257 147 257 147 q 241 133 257 142 q 214 125 225 125 q 199 135 208 128 q 188 156 190 143 q 174 167 178 163 q 168 176 169 171 q 172 203 167 185 q 188 260 178 221 q 206 335 196 296 q 226 401 217 374 q 240 432 236 429 q 246 444 240 432 q 251 474 251 457 q 260 503 254 490 q 267 521 267 515 q 283 554 272 525 q 311 631 294 583 q 321 658 311 635 q 344 712 331 681 q 373 777 358 743 q 397 838 388 811 q 423 881 414 861 q 442 906 432 901 q 459 905 449 907 q 480 897 469 903 q 497 881 490 892 q 503 868 501 874 q 499 848 504 863 q 477 799 493 833 q 431 701 461 765 q 367 553 392 618 q 325 438 342 488 q 294 351 308 388 l 288 321 l 322 354 q 368 392 343 369 q 413 431 393 414 q 442 448 424 439 q 479 464 461 457 q 506 472 497 471 q 526 476 510 474 q 567 479 543 479 q 616 465 597 479 q 653 421 635 451 q 665 355 668 392 q 643 286 663 318 q 629 272 636 281 q 622 257 622 263 q 597 217 621 247 q 550 161 574 188 q 489 109 525 135 q 417 63 453 83 q 357 35 382 43 q 325 30 346 33 q 293 24 304 26 z "},"c":{"ha":493,"x_min":139,"x_max":550,"o":"m 290 15 q 217 20 250 8 q 163 60 183 32 q 143 133 143 89 q 153 230 139 175 q 194 340 167 285 q 253 436 221 396 q 308 497 281 469 q 358 535 336 525 q 395 545 378 543 q 424 547 413 547 q 472 527 446 542 q 497 496 497 513 q 501 492 497 496 q 504 489 504 489 q 519 471 513 489 q 526 430 525 453 q 519 392 528 407 q 500 346 514 365 q 475 326 486 326 q 465 326 469 326 q 460 318 460 325 q 452 313 460 311 q 436 322 444 314 q 424 340 428 329 q 429 364 424 347 q 440 407 435 381 q 439 458 449 446 q 401 458 429 469 q 335 404 367 439 q 278 315 304 369 q 231 178 251 260 q 224 122 222 146 q 231 97 226 99 q 283 95 250 92 q 332 107 317 99 q 382 137 354 118 q 431 171 410 156 q 447 185 438 175 q 468 200 457 194 q 488 219 479 217 q 513 222 496 222 q 533 214 524 219 q 547 203 543 208 q 542 193 550 197 q 535 190 536 193 q 535 186 535 186 q 523 163 538 181 q 486 125 508 146 q 444 90 464 104 q 415 75 424 75 q 401 67 401 75 q 381 53 401 64 q 335 31 361 42 q 290 15 310 19 z "},"i":{"ha":260,"x_min":133,"x_max":400,"o":"m 154 44 q 138 72 143 56 q 135 106 133 89 q 142 133 136 122 q 145 151 142 144 q 147 163 149 157 q 150 182 146 168 q 158 208 154 196 q 179 262 168 231 q 200 324 190 293 q 217 376 210 354 q 225 404 224 399 q 247 422 225 421 q 272 423 264 428 q 294 396 281 418 q 303 363 306 385 q 285 307 300 340 q 272 275 279 296 q 261 238 264 254 q 248 206 256 226 q 235 168 240 186 q 229 148 232 161 q 222 120 226 135 q 211 94 218 106 q 188 28 199 38 q 154 44 178 18 m 289 608 q 276 628 282 615 q 269 653 271 642 q 272 665 268 665 q 299 689 283 667 q 311 728 314 711 q 315 738 311 733 q 325 744 319 743 q 358 748 342 756 q 388 718 374 740 q 394 674 400 692 q 364 626 389 657 q 326 596 343 599 q 289 608 308 593 z "},"n":{"ha":625,"x_min":144,"x_max":658,"o":"m 631 64 q 585 76 603 64 q 554 115 567 88 q 545 159 549 135 q 542 205 542 183 q 546 233 542 226 q 551 253 551 239 q 550 285 550 268 q 537 316 549 313 q 503 307 525 319 q 438 266 478 292 q 353 210 397 240 q 271 146 310 179 q 234 95 240 113 q 217 78 228 78 q 198 77 206 72 q 176 93 190 82 q 157 115 167 104 q 144 131 147 125 q 149 160 144 138 q 159 204 153 182 q 168 233 165 226 q 180 247 175 233 q 196 278 185 261 q 210 323 199 294 q 232 374 222 351 q 259 429 251 407 q 269 485 267 451 q 272 495 268 490 q 282 500 276 500 l 282 500 l 282 500 q 308 506 293 511 q 336 485 324 501 q 356 416 361 451 q 311 315 351 381 q 297 281 301 293 q 292 263 292 269 q 306 272 292 263 q 340 295 321 282 q 369 315 358 308 q 401 340 376 322 q 455 376 426 358 q 497 396 483 393 q 521 406 508 401 q 539 411 533 411 q 567 399 550 411 q 600 372 585 388 q 618 344 615 356 q 619 333 618 339 q 621 322 619 328 q 627 274 626 304 q 625 218 628 243 q 615 189 622 193 q 616 185 615 189 q 622 182 617 182 q 622 176 622 176 q 622 175 622 175 q 617 163 615 175 q 626 138 618 151 q 642 115 633 124 q 656 84 658 99 q 631 64 653 69 z "},"o":{"ha":490,"x_min":132,"x_max":553,"o":"m 235 21 q 206 28 217 21 q 181 47 196 35 q 143 101 154 75 q 136 150 132 126 q 140 172 140 161 q 139 182 139 182 q 135 191 132 189 q 140 199 138 193 q 146 214 149 199 q 157 263 143 225 q 192 333 171 300 q 217 370 200 347 q 253 416 233 393 q 290 453 274 439 q 351 496 325 482 q 408 517 378 510 q 451 524 439 524 q 483 501 463 524 q 530 468 515 488 q 549 411 544 449 q 542 316 553 369 q 476 183 532 263 q 413 109 442 133 q 343 61 383 85 q 290 33 314 42 q 235 21 267 24 m 368 168 q 422 239 401 206 q 460 324 442 272 q 467 362 465 339 q 466 405 468 385 q 456 428 464 425 q 415 434 439 438 q 364 407 392 431 q 289 317 321 371 q 226 196 257 264 q 217 116 206 146 q 269 95 229 86 q 368 168 308 104 z "},"r":{"ha":500,"x_min":143,"x_max":625,"o":"m 165 49 q 148 68 153 58 q 147 106 143 78 q 158 174 151 144 q 175 243 165 204 q 191 300 178 260 q 224 388 204 340 q 263 477 243 435 q 296 540 282 519 q 323 547 307 549 q 350 535 339 546 q 355 491 365 522 q 313 393 344 460 q 288 337 296 356 q 281 315 279 318 q 293 318 282 311 q 324 353 301 333 q 371 393 346 374 q 418 428 396 413 q 449 447 440 443 q 474 459 460 454 q 494 467 489 464 q 560 478 526 482 q 601 453 593 474 q 610 436 603 442 q 618 431 618 431 q 624 426 624 431 q 625 422 625 422 q 610 410 625 413 q 574 407 596 408 q 542 400 556 406 q 508 386 528 394 q 408 326 456 356 q 315 249 360 297 q 296 222 306 238 q 275 189 286 207 q 261 158 268 182 q 249 113 254 135 q 244 88 244 92 q 240 74 244 88 q 226 49 236 61 q 199 26 210 26 q 165 49 188 26 z "},"t":{"ha":460,"x_min":160,"x_max":574,"o":"m 249 10 q 217 26 233 13 q 190 56 201 39 q 174 88 178 74 q 170 94 174 90 q 167 99 167 99 q 160 135 161 103 q 164 208 160 168 q 174 272 168 249 q 194 333 181 294 q 218 401 208 371 l 256 482 l 200 497 q 184 508 190 500 q 178 522 178 517 q 190 549 178 533 q 208 565 203 565 q 234 564 215 564 q 271 565 253 564 q 293 568 289 567 q 304 576 299 571 q 313 590 310 581 q 325 619 319 606 q 340 649 331 632 q 356 679 350 667 q 376 714 363 692 q 392 738 383 724 q 413 761 400 751 q 438 772 425 772 q 472 753 451 771 q 485 732 483 739 q 474 706 486 725 q 448 658 463 682 q 421 611 433 635 q 413 576 399 581 q 490 582 426 572 q 549 578 531 589 q 569 544 567 568 q 563 504 574 511 q 499 497 551 497 q 442 491 465 492 q 407 490 418 490 q 383 489 389 489 q 367 486 378 489 q 351 477 356 483 q 340 460 346 471 q 324 431 335 454 q 296 379 313 407 q 263 263 276 321 q 240 151 249 206 q 242 103 235 117 q 278 88 249 90 q 327 88 293 86 q 381 96 361 90 q 413 110 396 103 q 443 126 429 118 q 468 141 456 133 q 481 149 481 149 q 496 156 488 160 q 510 135 504 151 q 503 100 510 118 q 451 57 496 82 q 337 10 389 18 q 249 10 285 3 z "},"u":{"ha":514,"x_min":151,"x_max":581,"o":"m 471 3 q 443 41 457 17 q 421 97 429 65 q 419 128 418 108 q 418 156 419 147 q 405 135 414 146 q 388 118 396 125 q 363 97 382 113 q 324 71 343 81 q 248 39 278 42 q 192 69 218 36 q 160 110 169 88 q 160 171 151 132 q 174 266 163 219 q 219 390 185 313 q 264 474 249 447 q 283 507 279 501 q 318 506 304 514 q 335 479 332 499 q 333 432 343 465 q 297 350 322 399 q 262 256 278 303 q 243 175 246 208 q 260 135 240 142 q 303 139 272 128 q 374 194 335 150 q 451 329 414 239 q 468 378 463 357 q 475 426 474 400 q 477 456 472 443 q 499 479 482 469 q 514 492 504 486 q 526 492 524 499 l 549 493 q 556 487 554 494 q 565 474 558 479 q 574 419 581 461 q 535 303 567 378 q 499 217 508 246 q 489 160 490 188 q 499 113 489 135 q 529 72 508 90 q 547 50 544 63 q 547 21 549 38 q 531 1 544 8 q 501 -7 518 -7 q 471 3 485 -7 z "},"z":{"ha":438,"x_min":35,"x_max":569,"o":"m 194 39 q 115 30 142 32 q 76 33 89 28 q 47 53 63 39 q 38 79 35 64 q 85 139 42 94 q 139 199 111 171 q 189 246 167 228 q 211 263 199 254 q 251 292 224 272 q 333 347 279 311 q 375 379 360 368 q 401 398 390 390 q 422 414 411 406 q 380 418 413 415 q 319 418 347 421 q 269 419 281 418 q 247 422 258 419 l 226 422 q 201 428 219 422 q 168 444 183 435 q 151 464 153 454 q 160 469 151 464 q 174 479 168 474 q 191 490 185 486 q 203 489 197 494 q 229 490 203 489 q 289 492 256 490 q 408 487 369 490 q 465 475 446 483 q 501 450 483 467 q 519 407 524 428 q 500 369 515 386 q 490 358 494 364 q 481 351 485 351 q 461 339 481 351 q 414 308 442 326 q 362 275 388 290 q 331 253 336 260 q 307 238 321 247 q 288 224 293 229 q 269 204 283 218 q 238 179 254 190 q 208 151 225 168 q 178 122 190 135 q 165 110 165 110 q 193 113 165 110 q 263 120 221 117 q 344 121 304 124 q 448 124 410 122 q 506 126 486 126 q 538 119 526 125 q 555 108 547 117 q 566 91 563 100 q 567 78 569 82 q 524 74 561 78 q 438 68 486 71 q 314 54 374 63 q 194 39 254 46 z "}}}
